PathFileType	4	(X/Y/Z)	./resultDataOpenSim/trcMotMarkerGrf/sub06/qtm-02-08.trc
DataRate	CameraRate	NumFrames	NumMarkers	Units	OrigDataRate	OrigDataStartFrame	OrigNumFrames
250.000000	250.000000	12	24	m	250.000000	367	489
Frame#	Time	L.Toe.Tip			R.Toe.Tip			L.Ankle.Lat			R.Ankle.Lat			L.Ankle.Med			R.Ankle.Med			L.Heel			R.Heel			L.Knee.Lat			R.Knee.Lat			L.Knee.Med			R.Knee.Med			L.Thigh.Upper			R.Thigh.Upper			L.ASIS			R.ASIS			V.Sacral			L.Acromium			R.Acromium			C7			L.Elbow			R.Elbow			L.Wrist.Lat			R.Wrist.Lat
		X1	Y1	Z1	X2	Y2	Z2	X3	Y3	Z3	X4	Y4	Z4	X5	Y5	Z5	X6	Y6	Z6	X7	Y7	Z7	X8	Y8	Z8	X9	Y9	Z9	X10	Y10	Z10	X11	Y11	Z11	X12	Y12	Z12	X13	Y13	Z13	X14	Y14	Z14	X15	Y15	Z15	X16	Y16	Z16	X17	Y17	Z17	X18	Y18	Z18	X19	Y19	Z19	X20	Y20	Z20	X21	Y21	Z21	X22	Y22	Z22	X23	Y23	Z23	X24	Y24	Z24

367	1.464	1.4105133	0.097726964	-0.044881818	0.88078689	0.03518675	0.13483419	1.2838653	0.098634114	-0.063346033	0.74916183	0.078160342	0.15435872	1.2840998	0.11191102	0.020579641	0.7768483	0.098156392	0.069201352	1.2219665	0.049435325	-0.01912691	0.69484615	0.06649025	0.09236452	1.2434063	0.47123065	-0.058655047	0.90999231	0.43602155	0.19167196	1.2340184	0.45705145	0.062117902	0.8867142	0.43711116	0.061528231	1.0467619	0.81177423	-0.090886043	0.98829058	0.79386378	0.25378224	1.1063278	0.85639109	-0.036738558	1.092779	0.84749797	0.21268205	0.91212073	0.92015467	0.083525872	1.0102621	1.3338206	-0.099716373	1.0503247	1.3267416	0.25863141	0.95081513	1.3676945	0.090532896	0.9081706	1.0398781	-0.16078031	1.0783495	1.0103096	0.35413825	0.9896126	0.81646152	-0.21656628	1.319898	0.97886493	0.29625079
368	1.468	1.4266266	0.10072207	-0.043735465	0.88083601	0.035172474	0.13483798	1.2998144	0.098659774	-0.06257441	0.74968609	0.079035014	0.15445353	1.2996145	0.11214285	0.021216449	0.77749295	0.098794144	0.06928063	1.2391133	0.04802092	-0.018427318	0.69514818	0.067864238	0.092653022	1.2492309	0.46907965	-0.058105241	0.91375389	0.43554866	0.19157654	1.2398798	0.45492443	0.06286695	0.89073396	0.43671192	0.061309395	1.0536761	0.81040443	-0.091124314	0.99399892	0.79260146	0.25318627	1.1133565	0.85495736	-0.036970021	1.0991701	0.8458333	0.2129552	0.91866539	0.9187927	0.082904274	1.016414	1.3323385	-0.10002215	1.0564602	1.325501	0.25838311	0.95793962	1.365412	0.089564146	0.91354901	1.0389485	-0.1607952	1.0860925	1.0091892	0.35390989	0.99279124	0.81511304	-0.21771181	1.3276543	0.97992579	0.29479978
369	1.472	1.4420742	0.10377939	-0.042716779	0.88088262	0.035149487	0.13486096	1.3151859	0.098871166	-0.061787564	0.75024166	0.079966311	0.15460224	1.3148408	0.1125334	0.021922576	0.77814634	0.099473342	0.069410681	1.2556403	0.046885572	-0.017659133	0.69540237	0.069336182	0.093105165	1.2551368	0.46696004	-0.057523649	0.91767623	0.43505358	0.1915566	1.2457658	0.45280074	0.063663955	0.89481539	0.43629892	0.061151138	1.0606582	0.80902517	-0.091377965	0.99978945	0.79133052	0.25259366	1.1204378	0.85355044	-0.037207996	1.1055063	0.8443173	0.21293258	0.92524463	0.91739437	0.082236197	1.022596	1.3308533	-0.10035214	1.0626037	1.3242441	0.25811921	0.96515767	1.3630339	0.088523286	0.91897829	1.038022	-0.1608159	1.0937701	1.0080554	0.35364103	0.99606514	0.81376874	-0.21880169	1.3353385	0.98087047	0.29336885
370	1.476	1.4567947	0.10691992	-0.041834236	0.88092956	0.035113763	0.13489966	1.3299237	0.099233132	-0.060972251	0.750837	0.080947783	0.15480918	1.3295864	0.11292738	0.022730564	0.77881589	0.10019657	0.069592087	1.2715106	0.045959201	-0.016816433	0.69569822	0.070880991	0.093603361	1.2611442	0.46491191	-0.056917208	0.92174164	0.43453647	0.19157489	1.2517116	0.45071416	0.064498004	0.8989749	0.43587419	0.061046737	1.0676878	0.80763786	-0.091627952	1.0056391	0.7900564	0.25198207	1.127565	0.85217717	-0.037447263	1.1117933	0.84300211	0.21262836	0.93184377	0.91597541	0.081516524	1.0288132	1.3293681	-0.10070469	1.0687589	1.3229742	0.25783991	0.97204992	1.3609849	0.087703005	0.92445924	1.0370893	-0.16086371	1.1013882	1.0069109	0.35334564	0.99944929	0.81242384	-0.2198224	1.3429519	0.98169403	0.29196974
371	1.48	1.470754	0.11011539	-0.041075699	0.88098399	0.035076606	0.13494279	1.3439857	0.099705636	-0.060116357	0.75148803	0.081968092	0.15508062	1.3436166	0.11322488	0.023622829	0.77951703	0.10096557	0.069825242	1.2867223	0.045180807	-0.015859415	0.69611683	0.072477218	0.094044631	1.2672705	0.46297565	-0.056280221	0.92593039	0.43399837	0.19159096	1.2577702	0.44871015	0.065362872	0.90323397	0.43543399	0.060989005	1.0747589	0.80624252	-0.091871373	1.0115127	0.78877865	0.25130874	1.1347318	0.85083793	-0.037683211	1.1180948	0.84181755	0.21218508	0.93846932	0.91455627	0.08074862	1.0350717	1.3278894	-0.10107791	1.0749301	1.3216923	0.2575461	0.97851882	1.359371	0.08718911	0.93000033	1.0361418	-0.16095139	1.1089506	1.0057575	0.35303478	1.0029542	0.81107382	-0.22076319	1.3504908	0.98238988	0.29061134
372	1.484	1.4839645	0.11325023	-0.04038323	0.8810491	0.035066497	0.13498573	1.3573529	0.10023701	-0.059215146	0.75219947	0.083028502	0.15542144	1.3567233	0.11348332	0.024536473	0.78025862	0.10178334	0.07011171	1.3012804	0.044522398	-0.014801811	0.69664929	0.074132169	0.094447347	1.2735209	0.46118541	-0.055599565	0.9302367	0.43343688	0.19159046	1.2639782	0.44683645	0.066269717	0.90760567	0.43496894	0.060976516	1.0818763	0.80484361	-0.092113096	1.017395	0.78748709	0.25054709	1.1419388	0.84953616	-0.0379117	1.1244591	0.8406783	0.21171304	0.94515118	0.91314232	0.079951853	1.0413742	1.3264201	-0.10146546	1.0811162	1.3203986	0.25723613	0.98474987	1.3580112	0.086868372	0.93561379	1.0351826	-0.16107735	1.116447	1.0045924	0.35270364	1.0065827	0.80971596	-0.22162197	1.35795	0.98296184	0.28929538
373	1.488	1.4964834	0.11616341	-0.039682729	0.88111588	0.035116043	0.1350377	1.370028	0.10076445	-0.058264398	0.75295887	0.084143188	0.15582691	1.3689073	0.11387458	0.0254434	0.78103759	0.1026574	0.070452694	1.3151461	0.043982006	-0.013742359	0.69723157	0.075875315	0.094902473	1.2798958	0.45955926	-0.054866292	0.93466912	0.43284732	0.19158742	1.2702919	0.44512417	0.067242235	0.91209449	0.43447063	0.06100968	1.0890472	0.80344497	-0.092352515	1.0233164	0.786171	0.24972464	1.1491996	0.84827958	-0.038134733	1.1309045	0.83952905	0.21125342	0.95193518	0.91172699	0.079139669	1.04772	1.324958	-0.10186032	1.0873131	1.3190962	0.25690707	0.99094014	1.3567197	0.086587009	0.94130584	1.0342216	-0.16123853	1.1238433	1.0034037	0.35232582	1.010341	0.80834906	-0.22239992	1.3653234	0.98342191	0.28802105
374	1.492	1.5083603	0.11872632	-0.038938036	0.88117538	0.035231065	0.13510526	1.3820142	0.10122482	-0.057246391	0.75377125	0.085316468	0.1562853	1.3803938	0.11447837	0.026392471	0.78184924	0.10359651	0.070847244	1.3282234	0.043536393	-0.012731573	0.69783546	0.077735752	0.095457503	1.2864204	0.45810351	-0.054083353	0.93923978	0.43222788	0.19159898	1.276477	0.44357116	0.068289633	0.91671551	0.4339327	0.061079939	1.0962781	0.80204226	-0.092589656	1.0293095	0.78483624	0.24889807	1.1565428	0.84707482	-0.038364161	1.1374365	0.83834089	0.21081784	0.95886596	0.91030795	0.078294761	1.0541072	1.3235021	-0.10226229	1.0935224	1.3177924	0.25656202	0.99718493	1.3554191	0.086240323	0.94707133	1.0332646	-0.16143636	1.131116	1.0021838	0.35188443	1.0142421	0.80697463	-0.2230964	1.3726058	0.98377462	0.28678724
375	1.496	1.5195807	0.12085845	-0.038146753	0.88123887	0.035362483	0.13518017	1.3932978	0.10156618	-0.056138231	0.75468285	0.086530257	0.15679275	1.3913838	0.1151436	0.027451608	0.78269919	0.10460825	0.071291931	1.3404241	0.043120177	-0.011681535	0.69848787	0.079729422	0.096094037	1.2931272	0.45682545	-0.053257968	0.94395499	0.43158114	0.19162676	1.2820987	0.44214961	0.069382662	0.92150769	0.43334891	0.06115918	1.1035762	0.80063238	-0.092832333	1.0353316	0.78351065	0.24810237	1.1639813	0.8459215	-0.038612576	1.1440568	0.8370954	0.21041814	0.96595084	0.90889579	0.077371707	1.0605329	1.3220588	-0.10267969	1.0997492	1.3164966	0.25620726	1.0034972	1.3541044	0.085803279	0.95290417	1.0323128	-0.16167034	1.138299	1.0009517	0.35141297	1.0182903	0.80559773	-0.22371064	1.3798	0.98401196	0.28559405
376	1.5	1.5300915	0.12250432	-0.037315113	0.88133337	0.035437622	0.13525715	1.4038697	0.10174487	-0.054936143	0.75574899	0.087766484	0.15736323	1.4018661	0.11561081	0.028647849	0.78360819	0.10569806	0.071780405	1.3517316	0.042665367	-0.010486439	0.69922165	0.081859857	0.096780329	1.3000057	0.4557334	-0.052388992	0.94881923	0.43091419	0.19166941	1.2868994	0.44084852	0.070466741	0.926512	0.43272055	0.06121477	1.1109453	0.7992301	-0.093085843	1.0412882	0.78223298	0.24738239	1.1714789	0.84480914	-0.038870575	1.1507615	0.83578534	0.21006783	0.97312107	0.90751616	0.076338404	1.0669915	1.3206391	-0.10312177	1.1059947	1.3152152	0.25584089	1.0098504	1.3527951	0.085308845	0.95880673	1.0313659	-0.16193723	1.1454584	0.99974214	0.3509704	1.0224812	0.80422558	-0.22424434	1.3869179	0.98412369	0.28444389
377	1.504	1.5398764	0.12362941	-0.036450029	0.88147815	0.03542928	0.13535272	1.413748	0.10171693	-0.053653744	0.7569915	0.089038262	0.15801583	1.4116787	0.11573124	0.029964378	0.78461009	0.1068671	0.072302339	1.3621873	0.042132684	-0.009120472	0.70004808	0.084123338	0.097499983	1.3070131	0.45481725	-0.051469554	0.95383945	0.43023716	0.19173447	1.2913221	0.43971758	0.071500767	0.9317366	0.43206134	0.061241674	1.1183841	0.79786341	-0.093349601	1.0472136	0.78102391	0.24685751	1.1789758	0.84372289	-0.039108894	1.1575353	0.83443068	0.20976572	0.98026081	0.90619478	0.075246279	1.0734775	1.3192497	-0.10359076	1.1122595	1.3139511	0.25545434	1.0162188	1.351504	0.084792577	0.96478218	1.0304185	-0.16223873	1.152617	0.99857096	0.3505748	1.0268193	0.8028633	-0.22470343	1.3939679	0.98410892	0.28333438
378	1.508	1.5489677	0.1242242	-0.035538981	0.88167732	0.035369156	0.13549787	1.4229595	0.10144174	-0.052294606	0.75837619	0.090402853	0.15873983	1.4207473	0.11552276	0.031372626	0.78573813	0.10811398	0.072844219	1.371839	0.041493151	-0.0075899172	0.70097333	0.086514498	0.098243897	1.314125	0.45403262	-0.050495089	0.95901769	0.42955678	0.19182395	1.2962163	0.43883323	0.072467565	0.9371621	0.43138826	0.061260698	1.1258921	0.7965546	-0.093629431	1.0534099	0.77985609	0.2466812	1.1864429	0.84265438	-0.03931283	1.1643586	0.83307237	0.20949052	0.98730621	0.90493309	0.074221127	1.0799899	1.3178908	-0.10408508	1.1185486	1.312706	0.25504324	1.0226009	1.3502306	0.084267446	0.97082861	1.029462	-0.16258131	1.1597467	0.99742901	0.35019949	1.0313184	0.80150979	-0.22509635	1.400943	0.98397636	0.2822546
